<?xml version="1.0" encoding="utf-8"?>
<!-- Generator: Adobe Illustrator 21.0.0, SVG Export Plug-In . SVG Version: 6.00 Build 0)  -->
<svg version="1.1" id="Layer_1" xmlns="http://www.w3.org/2000/svg" xmlns:xlink="http://www.w3.org/1999/xlink" x="0px" y="0px"
	 viewBox="0 0 26 28" enable-background="new 0 0 26 28" xml:space="preserve">
<title>Asset 25</title>
<g id="Layer_2">
	<g id="ICONS">
		<polygon fill="#FFFFFF" points="25,27 5,27 5,1 20,1 25,6 		"/>
		<path fill="#A6A6A6" d="M20,0H4v28h22V6L20,0z M20,1.5L24.5,6H20V1.5z M25,27H5V1h14v6h6V27z"/>
		<rect x="13" y="20" fill="#C8C8C8" width="10" height="1"/>
		<rect x="13" y="18" fill="#C8C8C8" width="10" height="1"/>
		<rect x="13" y="22" fill="#C8C8C8" width="10" height="1"/>
		<polygon fill="#0078D7" points="0,9 13,7 13,25 0,23 		"/>
		<path fill="#FFFFFF" d="M4,19.6v-1.7c0.3,0.3,0.6,0.5,1,0.6c0.3,0.1,0.7,0.2,1,0.2c0.2,0,0.4,0,0.5-0.1c0.2,0,0.3-0.1,0.5-0.2
			c0.1-0.1,0.2-0.1,0.2-0.2c0.1-0.1,0.1-0.2,0.1-0.3c0-0.1,0-0.3-0.1-0.4c-0.1-0.1-0.2-0.2-0.3-0.3c-0.2-0.1-0.3-0.2-0.5-0.3
			l-0.6-0.3c-0.5-0.2-0.9-0.5-1.3-0.9C4.2,15.2,4,14.8,4,14.3c0-0.3,0.1-0.7,0.2-1c0.1-0.3,0.4-0.5,0.6-0.7c0.3-0.2,0.6-0.3,0.9-0.4
			C6.1,12.1,6.5,12,6.9,12c0.3,0,0.7,0,1,0.1c0.3,0,0.5,0.1,0.8,0.2v1.6c-0.1-0.1-0.3-0.2-0.4-0.2c-0.1-0.1-0.3-0.1-0.4-0.2
			c-0.1,0-0.3-0.1-0.4-0.1c-0.1,0-0.3,0-0.4,0c-0.2,0-0.3,0-0.5,0.1c-0.1,0-0.3,0.1-0.4,0.2c-0.1,0.1-0.2,0.1-0.2,0.2
			c-0.1,0.1-0.1,0.2-0.1,0.3c0,0.1,0,0.2,0.1,0.4c0.1,0.1,0.2,0.2,0.3,0.3c0.1,0.1,0.3,0.2,0.4,0.3l0.6,0.3c0.3,0.1,0.5,0.3,0.8,0.4
			c0.2,0.1,0.4,0.3,0.6,0.5c0.2,0.2,0.3,0.4,0.4,0.6C9,17.2,9,17.4,9,17.7c0,0.4-0.1,0.8-0.2,1.1c-0.1,0.3-0.4,0.5-0.6,0.7
			c-0.3,0.2-0.6,0.3-0.9,0.4C6.8,20,6.5,20,6.1,20c-0.4,0-0.7,0-1.1-0.1C4.7,19.8,4.3,19.7,4,19.6z"/>
		<rect x="13" y="9" fill="#B3D3E8" width="10" height="8"/>
	</g>
	<g id="SHADOW_OVERLAY">
		
			<linearGradient id="SVGID_1_" gradientUnits="userSpaceOnUse" x1="2.0824" y1="28.3905" x2="24.9631" y2="1.1297" gradientTransform="matrix(1 0 0 -1 0 30)">
			<stop  offset="0" style="stop-color:#FFFFFF;stop-opacity:0"/>
			<stop  offset="0.86" style="stop-color:#5E5E5E;stop-opacity:6.000000e-02"/>
			<stop  offset="1" style="stop-color:#000000;stop-opacity:0.1"/>
		</linearGradient>
		<path fill="url(#SVGID_1_)" d="M26,6l-6-6H4v28h22V6z"/>
		
			<linearGradient id="SVGID_2_" gradientUnits="userSpaceOnUse" x1="19.15" y1="22.9" x2="23.11" y2="26.86" gradientTransform="matrix(1 0 0 -1 0 30)">
			<stop  offset="0" style="stop-color:#FFFFFF;stop-opacity:0"/>
			<stop  offset="0.45" style="stop-color:#FFFFFF;stop-opacity:1.000000e-02"/>
			<stop  offset="0.64" style="stop-color:#FFFFFF;stop-opacity:4.000000e-02"/>
			<stop  offset="0.78" style="stop-color:#FFFFFF;stop-opacity:8.000000e-02"/>
			<stop  offset="0.89" style="stop-color:#FFFFFF;stop-opacity:0.15"/>
			<stop  offset="0.99" style="stop-color:#FFFFFF;stop-opacity:0.24"/>
			<stop  offset="1" style="stop-color:#FFFFFF;stop-opacity:0.25"/>
		</linearGradient>
		<polygon fill="url(#SVGID_2_)" points="4,0 4,1 19,1 19,7 25,7 25,22.5 26,22.5 26,6 20,0 		"/>
		
			<linearGradient id="SVGID_3_" gradientUnits="userSpaceOnUse" x1="6.5" y1="5.56" x2="6.5" y2="22.47" gradientTransform="matrix(1 0 0 -1 0 30)">
			<stop  offset="0" style="stop-color:#FFFFFF;stop-opacity:0"/>
			<stop  offset="0.53" style="stop-color:#FFFFFF;stop-opacity:1.000000e-02"/>
			<stop  offset="0.72" style="stop-color:#FFFFFF;stop-opacity:3.000000e-02"/>
			<stop  offset="0.85" style="stop-color:#FFFFFF;stop-opacity:8.000000e-02"/>
			<stop  offset="0.96" style="stop-color:#FFFFFF;stop-opacity:0.15"/>
			<stop  offset="1" style="stop-color:#FFFFFF;stop-opacity:0.18"/>
		</linearGradient>
		<polygon fill="url(#SVGID_3_)" points="13,7 0,9 0,23 13,25 		"/>
		
			<linearGradient id="SVGID_4_" gradientUnits="userSpaceOnUse" x1="8.2791" y1="2.6501" x2="8.6191" y2="5.7901" gradientTransform="matrix(1 0 0 -1 0 30)">
			<stop  offset="0" style="stop-color:#828282;stop-opacity:0"/>
			<stop  offset="0.86" style="stop-color:#303030;stop-opacity:0.13"/>
			<stop  offset="1" style="stop-color:#000000;stop-opacity:0.2"/>
		</linearGradient>
		<polygon fill="url(#SVGID_4_)" points="13,27 4,27 4,23.6 13,25 		"/>
		
			<linearGradient id="SVGID_5_" gradientUnits="userSpaceOnUse" x1="22" y1="21.06" x2="22" y2="22.94" gradientTransform="matrix(1 0 0 -1 0 30)">
			<stop  offset="0" style="stop-color:#828282;stop-opacity:0"/>
			<stop  offset="0.86" style="stop-color:#303030;stop-opacity:6.000000e-02"/>
			<stop  offset="1" style="stop-color:#000000;stop-opacity:0.1"/>
		</linearGradient>
		<rect x="19" y="7" fill="url(#SVGID_5_)" width="6" height="2"/>
	</g>
</g>
</svg>
