<?xml version="1.0" encoding="utf-8"?>
<!-- Generator: Adobe Illustrator 24.2.3, SVG Export Plug-In . SVG Version: 6.00 Build 0)  -->
<svg version="1.1" id="Layer_1" xmlns="http://www.w3.org/2000/svg" xmlns:xlink="http://www.w3.org/1999/xlink" x="0px" y="0px"
	 viewBox="0 0 32 32" enable-background="new 0 0 32 32" xml:space="preserve">
<g>
	
		<linearGradient id="SVGID_1_" gradientUnits="userSpaceOnUse" x1="14.2525" y1="3.7932" x2="26.5365" y2="-3.299" gradientTransform="matrix(1 0 0 -1 0 18)">
		<stop  offset="0" style="stop-color:#37BDFF"/>
		<stop  offset="0.1832" style="stop-color:#33BFFD"/>
		<stop  offset="0.3576" style="stop-color:#28C5F5"/>
		<stop  offset="0.528" style="stop-color:#15D0E9"/>
		<stop  offset="0.5468" style="stop-color:#12D1E7"/>
		<stop  offset="0.5903" style="stop-color:#1CD2E5"/>
		<stop  offset="0.7679" style="stop-color:#42D8DC"/>
		<stop  offset="0.9107" style="stop-color:#59DBD6"/>
		<stop  offset="1" style="stop-color:#62DCD4"/>
	</linearGradient>
	<path fill="url(#SVGID_1_)" d="M26.079,20.062c0,0.278-0.015,0.554-0.045,0.826c-0.18,1.661-0.898,3.162-1.98,4.324
		c0.136-0.151,0.259-0.314,0.367-0.488c0.083-0.132,0.157-0.27,0.219-0.414c0.023-0.047,0.043-0.097,0.06-0.145
		c0.021-0.047,0.038-0.097,0.053-0.145c0.017-0.045,0.032-0.093,0.045-0.14c0.013-0.049,0.027-0.098,0.038-0.147
		c0.002-0.006,0.004-0.012,0.006-0.017c0.012-0.049,0.021-0.098,0.03-0.147c0.01-0.051,0.019-0.102,0.027-0.153
		c0-0.002,0-0.002,0-0.004c0.008-0.047,0.013-0.095,0.017-0.144c0.012-0.112,0.017-0.223,0.017-0.337
		c0-0.639-0.176-1.239-0.484-1.749c-0.07-0.119-0.147-0.233-0.233-0.34c-0.1-0.129-0.208-0.25-0.325-0.361
		c-0.291-0.282-0.632-0.513-1.008-0.675c-0.163-0.072-0.333-0.13-0.507-0.174c-0.002,0-0.006-0.002-0.008-0.002l-0.06-0.021
		l-0.881-0.302v-0.002l-2.305-0.793c-0.008-0.002-0.017-0.002-0.023-0.004l-0.144-0.053c-0.463-0.182-0.847-0.522-1.088-0.955
		l-0.841-2.147l-0.965-2.459l-0.185-0.475l-0.047-0.097c-0.053-0.129-0.081-0.269-0.081-0.414c0-0.038,0-0.076,0.004-0.11
		c0.055-0.541,0.514-0.965,1.07-0.965c0.147,0,0.289,0.03,0.418,0.085l4.296,2.203l0.847,0.433c0.448,0.267,0.866,0.581,1.248,0.934
		c1.384,1.271,2.292,3.053,2.429,5.044C26.072,19.709,26.079,19.885,26.079,20.062z"/>
	
		<linearGradient id="SVGID_2_" gradientUnits="userSpaceOnUse" x1="7.0529" y1="-6.847" x2="24.9313" y2="-6.847" gradientTransform="matrix(1 0 0 -1 0 18)">
		<stop  offset="0" style="stop-color:#39D2FF"/>
		<stop  offset="0.1501" style="stop-color:#38CEFE"/>
		<stop  offset="0.2931" style="stop-color:#35C3FA"/>
		<stop  offset="0.4327" style="stop-color:#2FB0F3"/>
		<stop  offset="0.5468" style="stop-color:#299AEB"/>
		<stop  offset="0.5827" style="stop-color:#2692EC"/>
		<stop  offset="0.7635" style="stop-color:#1A6CF1"/>
		<stop  offset="0.909" style="stop-color:#1355F4"/>
		<stop  offset="1" style="stop-color:#104CF5"/>
	</linearGradient>
	<path fill="url(#SVGID_2_)" d="M24.931,22.93c0,0.219-0.021,0.431-0.059,0.638c-0.012,0.055-0.023,0.11-0.036,0.165
		c-0.025,0.098-0.051,0.193-0.083,0.287c-0.017,0.049-0.034,0.098-0.053,0.145c-0.019,0.049-0.04,0.097-0.06,0.145
		c-0.062,0.144-0.136,0.282-0.219,0.414c-0.108,0.174-0.231,0.337-0.367,0.488c-0.626,0.692-2.752,1.927-3.536,2.429l-1.739,1.063
		c-1.274,0.785-2.48,1.341-3.998,1.379c-0.072,0.002-0.142,0.004-0.212,0.004c-0.098,0-0.195-0.002-0.291-0.006
		c-2.572-0.098-4.816-1.479-6.109-3.52c-0.592-0.932-0.983-2.003-1.116-3.153c0.278,1.572,1.648,2.763,3.299,2.763
		c0.579,0,1.122-0.145,1.596-0.403c0.004-0.002,0.008-0.004,0.012-0.006l0.17-0.102l0.692-0.409l0.881-0.522v-0.025l0.114-0.068
		l7.885-4.672l0.607-0.359l0.06,0.021c0.002,0,0.006,0.002,0.008,0.002c0.174,0.043,0.344,0.102,0.507,0.174
		c0.376,0.163,0.717,0.394,1.008,0.675c0.117,0.112,0.225,0.233,0.325,0.361c0.085,0.108,0.163,0.221,0.233,0.34
		C24.755,21.691,24.931,22.291,24.931,22.93L24.931,22.93z"/>
	
		<linearGradient id="SVGID_3_" gradientUnits="userSpaceOnUse" x1="10.3526" y1="-8.4182" x2="10.3526" y2="15.489" gradientTransform="matrix(1 0 0 -1 0 18)">
		<stop  offset="0" style="stop-color:#1B48EF"/>
		<stop  offset="0.1221" style="stop-color:#1C51F0"/>
		<stop  offset="0.3212" style="stop-color:#1E69F5"/>
		<stop  offset="0.5676" style="stop-color:#2190FB"/>
		<stop  offset="1" style="stop-color:#26B8F4"/>
	</linearGradient>
	<path fill="url(#SVGID_3_)" d="M13.705,7.339L13.702,24.73l-0.881,0.522l-0.693,0.408l-0.171,0.103
		c-0.003,0-0.008,0.003-0.01,0.005c-0.475,0.256-1.018,0.403-1.597,0.403c-1.652,0-3.019-1.192-3.298-2.763
		c-0.013-0.072-0.023-0.147-0.031-0.22C7.01,23.052,7.003,22.918,7,22.781V3.209c0-0.618,0.502-1.122,1.122-1.122
		c0.233,0,0.45,0.072,0.628,0.191l3.43,2.241c0.018,0.016,0.039,0.029,0.06,0.041C13.126,5.165,13.705,6.184,13.705,7.339z"/>
	
		<linearGradient id="SVGID_4_" gradientUnits="userSpaceOnUse" x1="10.6064" y1="-11.2594" x2="21.6399" y2="-0.2259" gradientTransform="matrix(1 0 0 -1 0 18)">
		<stop  offset="0" style="stop-color:#FFFFFF"/>
		<stop  offset="0.3726" style="stop-color:#FDFDFD"/>
		<stop  offset="0.5069" style="stop-color:#F6F6F6"/>
		<stop  offset="0.6026" style="stop-color:#EBEBEB"/>
		<stop  offset="0.68" style="stop-color:#DADADA"/>
		<stop  offset="0.7463" style="stop-color:#C4C4C4"/>
		<stop  offset="0.805" style="stop-color:#A8A8A8"/>
		<stop  offset="0.8581" style="stop-color:#888888"/>
		<stop  offset="0.9069" style="stop-color:#626262"/>
		<stop  offset="0.9523" style="stop-color:#373737"/>
		<stop  offset="0.9926" style="stop-color:#090909"/>
		<stop  offset="1" style="stop-color:#000000"/>
	</linearGradient>
	<path opacity="0.15" fill="url(#SVGID_4_)" enable-background="new    " d="M24.931,22.93c0,0.219-0.021,0.431-0.059,0.638
		c-0.012,0.055-0.023,0.11-0.036,0.165c-0.025,0.098-0.051,0.193-0.083,0.287c-0.017,0.049-0.034,0.098-0.053,0.145
		c-0.019,0.049-0.04,0.097-0.06,0.145c-0.062,0.144-0.136,0.282-0.219,0.414c-0.108,0.174-0.231,0.337-0.367,0.488
		c-0.626,0.692-2.752,1.927-3.536,2.429l-1.739,1.063c-1.274,0.785-2.48,1.341-3.998,1.379c-0.072,0.002-0.142,0.004-0.212,0.004
		c-0.098,0-0.195-0.002-0.291-0.006c-2.572-0.098-4.816-1.479-6.109-3.52c-0.592-0.932-0.983-2.003-1.116-3.153
		c0.278,1.572,1.648,2.763,3.299,2.763c0.579,0,1.122-0.145,1.596-0.403c0.004-0.002,0.008-0.004,0.012-0.006l0.17-0.102
		l0.692-0.409l0.881-0.522v-0.025l0.114-0.068l7.885-4.672l0.607-0.359l0.06,0.021c0.002,0,0.006,0.002,0.008,0.002
		c0.174,0.043,0.344,0.102,0.507,0.174c0.376,0.163,0.717,0.394,1.008,0.675c0.117,0.112,0.225,0.233,0.325,0.361
		c0.085,0.108,0.163,0.221,0.233,0.34C24.755,21.691,24.931,22.291,24.931,22.93L24.931,22.93z"/>
	
		<linearGradient id="SVGID_5_" gradientUnits="userSpaceOnUse" x1="10.3526" y1="15.9132" x2="10.3526" y2="-8.1724" gradientTransform="matrix(1 0 0 -1 0 18)">
		<stop  offset="0" style="stop-color:#FFFFFF"/>
		<stop  offset="0.3726" style="stop-color:#FDFDFD"/>
		<stop  offset="0.5069" style="stop-color:#F6F6F6"/>
		<stop  offset="0.6026" style="stop-color:#EBEBEB"/>
		<stop  offset="0.68" style="stop-color:#DADADA"/>
		<stop  offset="0.7463" style="stop-color:#C4C4C4"/>
		<stop  offset="0.805" style="stop-color:#A8A8A8"/>
		<stop  offset="0.8581" style="stop-color:#888888"/>
		<stop  offset="0.9069" style="stop-color:#626262"/>
		<stop  offset="0.9523" style="stop-color:#373737"/>
		<stop  offset="0.9926" style="stop-color:#090909"/>
		<stop  offset="1" style="stop-color:#000000"/>
	</linearGradient>
	<path opacity="0.1" fill="url(#SVGID_5_)" enable-background="new    " d="M13.705,7.339L13.702,24.73l-0.881,0.522l-0.693,0.408
		l-0.171,0.103c-0.003,0-0.008,0.003-0.01,0.005c-0.475,0.256-1.018,0.403-1.597,0.403c-1.652,0-3.019-1.192-3.298-2.763
		c-0.013-0.072-0.023-0.147-0.031-0.22C7.01,23.052,7.003,22.918,7,22.781V3.209c0-0.618,0.502-1.122,1.122-1.122
		c0.233,0,0.45,0.072,0.628,0.191l3.43,2.241c0.018,0.016,0.039,0.029,0.06,0.041C13.126,5.165,13.705,6.184,13.705,7.339z"/>
</g>
</svg>
