<?xml version="1.0" encoding="utf-8"?>
<!-- Generator: Adobe Illustrator 24.2.3, SVG Export Plug-In . SVG Version: 6.00 Build 0)  -->
<svg version="1.1" id="Layer_1" xmlns="http://www.w3.org/2000/svg" xmlns:xlink="http://www.w3.org/1999/xlink" x="0px" y="0px"
	 viewBox="0 0 16 16" enable-background="new 0 0 16 16" xml:space="preserve">
<g>
	
		<linearGradient id="SVGID_1_" gradientUnits="userSpaceOnUse" x1="6.6378" y1="11.0823" x2="12.7799" y2="7.5362" gradientTransform="matrix(1 0 0 -1 0 18)">
		<stop  offset="0" style="stop-color:#37BDFF"/>
		<stop  offset="0.1832" style="stop-color:#33BFFD"/>
		<stop  offset="0.3576" style="stop-color:#28C5F5"/>
		<stop  offset="0.528" style="stop-color:#15D0E9"/>
		<stop  offset="0.5468" style="stop-color:#12D1E7"/>
		<stop  offset="0.5903" style="stop-color:#1CD2E5"/>
		<stop  offset="0.7679" style="stop-color:#42D8DC"/>
		<stop  offset="0.9107" style="stop-color:#59DBD6"/>
		<stop  offset="1" style="stop-color:#62DCD4"/>
	</linearGradient>
	<path fill="url(#SVGID_1_)" d="M12.551,9.845c0,0.139-0.008,0.277-0.023,0.413c-0.09,0.83-0.449,1.581-0.99,2.162
		c0.068-0.076,0.13-0.157,0.183-0.244c0.042-0.066,0.079-0.135,0.11-0.207c0.011-0.024,0.022-0.048,0.03-0.073
		c0.01-0.024,0.019-0.048,0.026-0.073c0.009-0.023,0.016-0.046,0.023-0.07c0.007-0.025,0.013-0.049,0.019-0.074
		c0.001-0.003,0.002-0.006,0.003-0.009c0.006-0.025,0.01-0.049,0.015-0.074c0.005-0.025,0.01-0.051,0.013-0.077
		c0-0.001,0-0.001,0-0.002c0.004-0.024,0.007-0.047,0.009-0.072c0.006-0.056,0.009-0.111,0.009-0.168
		c0-0.32-0.088-0.619-0.242-0.875c-0.035-0.06-0.074-0.116-0.116-0.17c-0.05-0.064-0.104-0.125-0.163-0.181
		c-0.146-0.141-0.316-0.256-0.504-0.338C10.872,9.68,10.787,9.651,10.7,9.629c-0.001,0-0.003-0.001-0.004-0.001l-0.03-0.01
		l-0.441-0.151V9.466L9.072,9.069C9.069,9.068,9.064,9.068,9.061,9.068L8.989,9.041C8.757,8.95,8.565,8.78,8.445,8.564L8.025,7.49
		L7.542,6.261L7.45,6.023L7.426,5.975C7.4,5.911,7.385,5.841,7.385,5.768c0-0.019,0-0.038,0.002-0.055
		c0.027-0.27,0.257-0.482,0.535-0.482c0.074,0,0.145,0.015,0.209,0.043l2.148,1.101l0.424,0.217c0.224,0.133,0.433,0.29,0.624,0.467
		c0.692,0.636,1.146,1.526,1.214,2.522C12.547,9.669,12.551,9.757,12.551,9.845z"/>
	
		<linearGradient id="SVGID_2_" gradientUnits="userSpaceOnUse" x1="3.038" y1="5.7622" x2="11.9773" y2="5.7622" gradientTransform="matrix(1 0 0 -1 0 18)">
		<stop  offset="0" style="stop-color:#39D2FF"/>
		<stop  offset="0.1501" style="stop-color:#38CEFE"/>
		<stop  offset="0.2931" style="stop-color:#35C3FA"/>
		<stop  offset="0.4327" style="stop-color:#2FB0F3"/>
		<stop  offset="0.5468" style="stop-color:#299AEB"/>
		<stop  offset="0.5827" style="stop-color:#2692EC"/>
		<stop  offset="0.7635" style="stop-color:#1A6CF1"/>
		<stop  offset="0.909" style="stop-color:#1355F4"/>
		<stop  offset="1" style="stop-color:#104CF5"/>
	</linearGradient>
	<path fill="url(#SVGID_2_)" d="M11.977,11.279c0,0.11-0.01,0.216-0.029,0.319c-0.006,0.027-0.011,0.055-0.018,0.082
		c-0.012,0.049-0.025,0.096-0.042,0.144c-0.009,0.025-0.017,0.049-0.026,0.073c-0.01,0.025-0.02,0.048-0.03,0.073
		c-0.031,0.072-0.068,0.141-0.11,0.207c-0.054,0.087-0.115,0.168-0.183,0.244c-0.313,0.346-1.376,0.964-1.768,1.214l-0.87,0.531
		c-0.637,0.393-1.24,0.671-1.999,0.689c-0.036,0.001-0.071,0.002-0.106,0.002c-0.049,0-0.097-0.001-0.146-0.003
		c-1.286-0.049-2.408-0.74-3.054-1.76c-0.296-0.466-0.492-1.001-0.558-1.576C3.177,12.304,3.862,12.9,4.687,12.9
		c0.289,0,0.561-0.073,0.798-0.202c0.002-0.001,0.004-0.002,0.006-0.003l0.085-0.051l0.346-0.204l0.441-0.261v-0.012l0.057-0.034
		l3.943-2.336l0.303-0.18l0.03,0.01c0.001,0,0.003,0.001,0.004,0.001c0.087,0.022,0.172,0.051,0.253,0.087
		c0.188,0.081,0.358,0.197,0.504,0.338c0.059,0.056,0.112,0.116,0.163,0.181c0.043,0.054,0.081,0.111,0.116,0.17
		C11.889,10.66,11.977,10.96,11.977,11.279L11.977,11.279z"/>
	
		<linearGradient id="SVGID_3_" gradientUnits="userSpaceOnUse" x1="4.6879" y1="4.9766" x2="4.6879" y2="16.9302" gradientTransform="matrix(1 0 0 -1 0 18)">
		<stop  offset="0" style="stop-color:#1B48EF"/>
		<stop  offset="0.1221" style="stop-color:#1C51F0"/>
		<stop  offset="0.3212" style="stop-color:#1E69F5"/>
		<stop  offset="0.5676" style="stop-color:#2190FB"/>
		<stop  offset="1" style="stop-color:#26B8F4"/>
	</linearGradient>
	<path fill="url(#SVGID_3_)" d="M6.364,3.484l-0.001,8.695L5.922,12.44l-0.346,0.204l-0.085,0.052c-0.001,0-0.004,0.001-0.005,0.003
		C5.248,12.827,4.976,12.9,4.687,12.9c-0.826,0-1.509-0.596-1.649-1.382c-0.007-0.036-0.012-0.074-0.016-0.11
		c-0.005-0.069-0.009-0.136-0.01-0.204V1.419c0-0.309,0.251-0.561,0.561-0.561c0.116,0,0.225,0.036,0.314,0.096l1.715,1.121
		c0.009,0.008,0.019,0.014,0.03,0.021C6.075,2.397,6.364,2.906,6.364,3.484z"/>
	
		<linearGradient id="SVGID_4_" gradientUnits="userSpaceOnUse" x1="4.8148" y1="3.556" x2="10.3315" y2="9.0727" gradientTransform="matrix(1 0 0 -1 0 18)">
		<stop  offset="0" style="stop-color:#FFFFFF"/>
		<stop  offset="0.3726" style="stop-color:#FDFDFD"/>
		<stop  offset="0.5069" style="stop-color:#F6F6F6"/>
		<stop  offset="0.6026" style="stop-color:#EBEBEB"/>
		<stop  offset="0.68" style="stop-color:#DADADA"/>
		<stop  offset="0.7463" style="stop-color:#C4C4C4"/>
		<stop  offset="0.805" style="stop-color:#A8A8A8"/>
		<stop  offset="0.8581" style="stop-color:#888888"/>
		<stop  offset="0.9069" style="stop-color:#626262"/>
		<stop  offset="0.9523" style="stop-color:#373737"/>
		<stop  offset="0.9926" style="stop-color:#090909"/>
		<stop  offset="1" style="stop-color:#000000"/>
	</linearGradient>
	<path opacity="0.15" fill="url(#SVGID_4_)" enable-background="new    " d="M11.977,11.279c0,0.11-0.01,0.216-0.029,0.319
		c-0.006,0.027-0.011,0.055-0.018,0.082c-0.012,0.049-0.025,0.096-0.042,0.144c-0.009,0.025-0.017,0.049-0.026,0.073
		c-0.01,0.025-0.02,0.048-0.03,0.073c-0.031,0.072-0.068,0.141-0.11,0.207c-0.054,0.087-0.115,0.168-0.183,0.244
		c-0.313,0.346-1.376,0.964-1.768,1.214l-0.87,0.531c-0.637,0.393-1.24,0.671-1.999,0.689c-0.036,0.001-0.071,0.002-0.106,0.002
		c-0.049,0-0.097-0.001-0.146-0.003c-1.286-0.049-2.408-0.74-3.054-1.76c-0.296-0.466-0.492-1.001-0.558-1.576
		C3.177,12.304,3.862,12.9,4.687,12.9c0.289,0,0.561-0.073,0.798-0.202c0.002-0.001,0.004-0.002,0.006-0.003l0.085-0.051
		l0.346-0.204l0.441-0.261v-0.012l0.057-0.034l3.943-2.336l0.303-0.18l0.03,0.01c0.001,0,0.003,0.001,0.004,0.001
		c0.087,0.022,0.172,0.051,0.253,0.087c0.188,0.081,0.358,0.197,0.504,0.338c0.059,0.056,0.112,0.116,0.163,0.181
		c0.043,0.054,0.081,0.111,0.116,0.17C11.889,10.66,11.977,10.96,11.977,11.279L11.977,11.279z"/>
	
		<linearGradient id="SVGID_5_" gradientUnits="userSpaceOnUse" x1="4.6879" y1="17.1423" x2="4.6879" y2="5.0995" gradientTransform="matrix(1 0 0 -1 0 18)">
		<stop  offset="0" style="stop-color:#FFFFFF"/>
		<stop  offset="0.3726" style="stop-color:#FDFDFD"/>
		<stop  offset="0.5069" style="stop-color:#F6F6F6"/>
		<stop  offset="0.6026" style="stop-color:#EBEBEB"/>
		<stop  offset="0.68" style="stop-color:#DADADA"/>
		<stop  offset="0.7463" style="stop-color:#C4C4C4"/>
		<stop  offset="0.805" style="stop-color:#A8A8A8"/>
		<stop  offset="0.8581" style="stop-color:#888888"/>
		<stop  offset="0.9069" style="stop-color:#626262"/>
		<stop  offset="0.9523" style="stop-color:#373737"/>
		<stop  offset="0.9926" style="stop-color:#090909"/>
		<stop  offset="1" style="stop-color:#000000"/>
	</linearGradient>
	<path opacity="0.1" fill="url(#SVGID_5_)" enable-background="new    " d="M6.364,3.484l-0.001,8.695L5.922,12.44l-0.346,0.204
		l-0.085,0.052c-0.001,0-0.004,0.001-0.005,0.003C5.248,12.827,4.976,12.9,4.687,12.9c-0.826,0-1.509-0.596-1.649-1.382
		c-0.007-0.036-0.012-0.074-0.016-0.11c-0.005-0.069-0.009-0.136-0.01-0.204V1.419c0-0.309,0.251-0.561,0.561-0.561
		c0.116,0,0.225,0.036,0.314,0.096l1.715,1.121c0.009,0.008,0.019,0.014,0.03,0.021C6.075,2.397,6.364,2.906,6.364,3.484z"/>
</g>
</svg>
