<?xml version="1.0" encoding="utf-8"?>
<!-- Generator: Adobe Illustrator 24.2.3, SVG Export Plug-In . SVG Version: 6.00 Build 0)  -->
<svg version="1.1" id="Layer_1" xmlns="http://www.w3.org/2000/svg" xmlns:xlink="http://www.w3.org/1999/xlink" x="0px" y="0px"
	 viewBox="0 0 24 24" enable-background="new 0 0 24 24" xml:space="preserve">
<g>
	
		<linearGradient id="SVGID_1_" gradientUnits="userSpaceOnUse" x1="11.1803" y1="7.4161" x2="19.9546" y2="2.3502" gradientTransform="matrix(1 0 0 -1 0 18)">
		<stop  offset="0" style="stop-color:#37BDFF"/>
		<stop  offset="0.1832" style="stop-color:#33BFFD"/>
		<stop  offset="0.3576" style="stop-color:#28C5F5"/>
		<stop  offset="0.528" style="stop-color:#15D0E9"/>
		<stop  offset="0.5468" style="stop-color:#12D1E7"/>
		<stop  offset="0.5903" style="stop-color:#1CD2E5"/>
		<stop  offset="0.7679" style="stop-color:#42D8DC"/>
		<stop  offset="0.9107" style="stop-color:#59DBD6"/>
		<stop  offset="1" style="stop-color:#62DCD4"/>
	</linearGradient>
	<path fill="url(#SVGID_1_)" d="M19.628,14.766c0,0.198-0.011,0.396-0.032,0.59c-0.128,1.186-0.642,2.259-1.414,3.088
		c0.097-0.108,0.185-0.224,0.262-0.349c0.059-0.095,0.112-0.193,0.157-0.296c0.016-0.034,0.031-0.069,0.043-0.104
		c0.015-0.034,0.027-0.069,0.038-0.104c0.012-0.032,0.023-0.066,0.032-0.1c0.009-0.035,0.019-0.07,0.027-0.105
		c0.001-0.004,0.003-0.008,0.004-0.012c0.008-0.035,0.015-0.07,0.022-0.105c0.007-0.036,0.014-0.073,0.019-0.109
		c0-0.001,0-0.001,0-0.003c0.005-0.034,0.009-0.068,0.012-0.103c0.008-0.08,0.012-0.159,0.012-0.24c0-0.457-0.126-0.885-0.346-1.25
		c-0.05-0.085-0.105-0.166-0.166-0.243c-0.072-0.092-0.148-0.178-0.232-0.258c-0.208-0.201-0.451-0.366-0.72-0.482
		c-0.116-0.051-0.238-0.093-0.362-0.124c-0.001,0-0.004-0.001-0.005-0.001l-0.043-0.015l-0.629-0.216v-0.001l-1.647-0.566
		c-0.005-0.001-0.012-0.001-0.016-0.003l-0.103-0.038c-0.331-0.13-0.605-0.373-0.777-0.682l-0.601-1.533l-0.689-1.756L12.34,9.306
		l-0.034-0.069c-0.038-0.092-0.058-0.192-0.058-0.296c0-0.027,0-0.054,0.003-0.078c0.039-0.386,0.367-0.689,0.765-0.689
		c0.105,0,0.207,0.022,0.299,0.061l3.069,1.573l0.605,0.309c0.32,0.191,0.619,0.415,0.892,0.667c0.989,0.908,1.637,2.18,1.735,3.603
		C19.623,14.514,19.628,14.639,19.628,14.766z"/>
	
		<linearGradient id="SVGID_2_" gradientUnits="userSpaceOnUse" x1="6.0378" y1="-0.1841" x2="18.8081" y2="-0.1841" gradientTransform="matrix(1 0 0 -1 0 18)">
		<stop  offset="0" style="stop-color:#39D2FF"/>
		<stop  offset="0.1501" style="stop-color:#38CEFE"/>
		<stop  offset="0.2931" style="stop-color:#35C3FA"/>
		<stop  offset="0.4327" style="stop-color:#2FB0F3"/>
		<stop  offset="0.5468" style="stop-color:#299AEB"/>
		<stop  offset="0.5827" style="stop-color:#2692EC"/>
		<stop  offset="0.7635" style="stop-color:#1A6CF1"/>
		<stop  offset="0.909" style="stop-color:#1355F4"/>
		<stop  offset="1" style="stop-color:#104CF5"/>
	</linearGradient>
	<path fill="url(#SVGID_2_)" d="M18.808,16.815c0,0.157-0.015,0.308-0.042,0.455c-0.008,0.039-0.016,0.078-0.026,0.118
		c-0.018,0.07-0.036,0.138-0.059,0.205c-0.012,0.035-0.024,0.07-0.038,0.104c-0.014,0.035-0.028,0.069-0.043,0.104
		c-0.045,0.103-0.097,0.201-0.157,0.296c-0.077,0.124-0.165,0.24-0.262,0.349c-0.447,0.495-1.966,1.376-2.525,1.735l-1.242,0.759
		c-0.91,0.561-1.771,0.958-2.856,0.985c-0.051,0.001-0.101,0.003-0.151,0.003c-0.07,0-0.139-0.001-0.208-0.004
		c-1.837-0.07-3.44-1.056-4.364-2.514c-0.423-0.666-0.702-1.431-0.797-2.252c0.198,1.123,1.177,1.974,2.356,1.974
		c0.413,0,0.801-0.104,1.14-0.288c0.003-0.001,0.005-0.003,0.008-0.004l0.122-0.073l0.495-0.292l0.629-0.373v-0.018l0.081-0.049
		l5.632-3.337l0.434-0.257l0.043,0.015c0.001,0,0.004,0.001,0.005,0.001c0.124,0.031,0.246,0.073,0.362,0.124
		c0.269,0.116,0.512,0.281,0.72,0.482c0.084,0.08,0.161,0.166,0.232,0.258c0.061,0.077,0.116,0.158,0.166,0.243
		C18.682,15.93,18.808,16.358,18.808,16.815L18.808,16.815z"/>
	
		<linearGradient id="SVGID_3_" gradientUnits="userSpaceOnUse" x1="8.3947" y1="-1.3064" x2="8.3947" y2="15.7702" gradientTransform="matrix(1 0 0 -1 0 18)">
		<stop  offset="0" style="stop-color:#1B48EF"/>
		<stop  offset="0.1221" style="stop-color:#1C51F0"/>
		<stop  offset="0.3212" style="stop-color:#1E69F5"/>
		<stop  offset="0.5676" style="stop-color:#2190FB"/>
		<stop  offset="1" style="stop-color:#26B8F4"/>
	</linearGradient>
	<path fill="url(#SVGID_3_)" d="M10.789,5.678L10.787,18.1l-0.629,0.373l-0.495,0.292l-0.122,0.074
		c-0.002,0-0.006,0.002-0.007,0.004c-0.34,0.183-0.727,0.288-1.141,0.288c-1.18,0-2.156-0.851-2.356-1.974
		C6.028,17.105,6.02,17.052,6.015,17C6.007,16.902,6.002,16.806,6,16.708V2.728c0-0.441,0.358-0.801,0.801-0.801
		c0.166,0,0.321,0.052,0.449,0.137L9.7,3.664c0.013,0.011,0.028,0.02,0.043,0.03C10.376,4.126,10.789,4.853,10.789,5.678z"/>
	
		<linearGradient id="SVGID_4_" gradientUnits="userSpaceOnUse" x1="8.576" y1="-3.3358" x2="16.4571" y2="4.5452" gradientTransform="matrix(1 0 0 -1 0 18)">
		<stop  offset="0" style="stop-color:#FFFFFF"/>
		<stop  offset="0.3726" style="stop-color:#FDFDFD"/>
		<stop  offset="0.5069" style="stop-color:#F6F6F6"/>
		<stop  offset="0.6026" style="stop-color:#EBEBEB"/>
		<stop  offset="0.68" style="stop-color:#DADADA"/>
		<stop  offset="0.7463" style="stop-color:#C4C4C4"/>
		<stop  offset="0.805" style="stop-color:#A8A8A8"/>
		<stop  offset="0.8581" style="stop-color:#888888"/>
		<stop  offset="0.9069" style="stop-color:#626262"/>
		<stop  offset="0.9523" style="stop-color:#373737"/>
		<stop  offset="0.9926" style="stop-color:#090909"/>
		<stop  offset="1" style="stop-color:#000000"/>
	</linearGradient>
	<path opacity="0.15" fill="url(#SVGID_4_)" enable-background="new    " d="M18.808,16.815c0,0.157-0.015,0.308-0.042,0.455
		c-0.008,0.039-0.016,0.078-0.026,0.118c-0.018,0.07-0.036,0.138-0.059,0.205c-0.012,0.035-0.024,0.07-0.038,0.104
		c-0.014,0.035-0.028,0.069-0.043,0.104c-0.045,0.103-0.097,0.201-0.157,0.296c-0.077,0.124-0.165,0.24-0.262,0.349
		c-0.447,0.495-1.966,1.376-2.525,1.735l-1.242,0.759c-0.91,0.561-1.771,0.958-2.856,0.985c-0.051,0.001-0.101,0.003-0.151,0.003
		c-0.07,0-0.139-0.001-0.208-0.004c-1.837-0.07-3.44-1.056-4.364-2.514c-0.423-0.666-0.702-1.431-0.797-2.252
		c0.198,1.123,1.177,1.974,2.356,1.974c0.413,0,0.801-0.104,1.14-0.288c0.003-0.001,0.005-0.003,0.008-0.004l0.122-0.073
		l0.495-0.292l0.629-0.373v-0.018l0.081-0.049l5.632-3.337l0.434-0.257l0.043,0.015c0.001,0,0.004,0.001,0.005,0.001
		c0.124,0.031,0.246,0.073,0.362,0.124c0.269,0.116,0.512,0.281,0.72,0.482c0.084,0.08,0.161,0.166,0.232,0.258
		c0.061,0.077,0.116,0.158,0.166,0.243C18.682,15.93,18.808,16.358,18.808,16.815L18.808,16.815z"/>
	
		<linearGradient id="SVGID_5_" gradientUnits="userSpaceOnUse" x1="8.3947" y1="16.0732" x2="8.3947" y2="-1.1308" gradientTransform="matrix(1 0 0 -1 0 18)">
		<stop  offset="0" style="stop-color:#FFFFFF"/>
		<stop  offset="0.3726" style="stop-color:#FDFDFD"/>
		<stop  offset="0.5069" style="stop-color:#F6F6F6"/>
		<stop  offset="0.6026" style="stop-color:#EBEBEB"/>
		<stop  offset="0.68" style="stop-color:#DADADA"/>
		<stop  offset="0.7463" style="stop-color:#C4C4C4"/>
		<stop  offset="0.805" style="stop-color:#A8A8A8"/>
		<stop  offset="0.8581" style="stop-color:#888888"/>
		<stop  offset="0.9069" style="stop-color:#626262"/>
		<stop  offset="0.9523" style="stop-color:#373737"/>
		<stop  offset="0.9926" style="stop-color:#090909"/>
		<stop  offset="1" style="stop-color:#000000"/>
	</linearGradient>
	<path opacity="0.1" fill="url(#SVGID_5_)" enable-background="new    " d="M10.789,5.678L10.787,18.1l-0.629,0.373l-0.495,0.292
		l-0.122,0.074c-0.002,0-0.006,0.002-0.007,0.004c-0.34,0.183-0.727,0.288-1.141,0.288c-1.18,0-2.156-0.851-2.356-1.974
		C6.028,17.105,6.02,17.052,6.015,17C6.007,16.902,6.002,16.806,6,16.708V2.728c0-0.441,0.358-0.801,0.801-0.801
		c0.166,0,0.321,0.052,0.449,0.137L9.7,3.664c0.013,0.011,0.028,0.02,0.043,0.03C10.376,4.126,10.789,4.853,10.789,5.678z"/>
</g>
</svg>
